<svg xmlns="http://www.w3.org/2000/svg" viewBox="0 0 64 64" fill="none" role="img" aria-label="Prompt2Site favicon">
	<defs>
		<linearGradient id="bg" x1="10" y1="8" x2="54" y2="56" gradientUnits="userSpaceOnUse">
			<stop stop-color="#20182f" />
			<stop offset="1" stop-color="#0c0a12" />
		</linearGradient>
		<linearGradient id="panel" x1="14" y1="16" x2="50" y2="48" gradientUnits="userSpaceOnUse">
			<stop stop-color="#fcfbff" />
			<stop offset="1" stop-color="#e7e0ff" />
		</linearGradient>
		<linearGradient id="accent" x1="20" y1="22" x2="44" y2="42" gradientUnits="userSpaceOnUse">
			<stop stop-color="#c084fc" />
			<stop offset="1" stop-color="#8b5cf6" />
		</linearGradient>
		<linearGradient id="shine" x1="16" y1="18" x2="44" y2="44" gradientUnits="userSpaceOnUse">
			<stop stop-color="#ffffff" stop-opacity="0.9" />
			<stop offset="1" stop-color="#ffffff" stop-opacity="0" />
		</linearGradient>
	</defs>
	<rect width="64" height="64" rx="16" fill="url(#bg)" />
	<rect x="13" y="15" width="38" height="34" rx="9" fill="#09070d" fill-opacity="0.35"/>
	<rect x="14" y="14" width="36" height="32" rx="9" fill="url(#panel)"/>
	<path d="M14 22H50V37C50 41.4183 46.4183 45 42 45H22C17.5817 45 14 41.4183 14 37V22Z" fill="#ffffff" fill-opacity="0.18"/>
	<rect x="14" y="14" width="36" height="9" rx="9" fill="#2b233b"/>
	<rect x="14" y="19" width="36" height="4" fill="#2b233b"/>
	<circle cx="22" cy="18.5" r="1.45" fill="#fb7185"/>
	<circle cx="27" cy="18.5" r="1.45" fill="#fbbf24"/>
	<circle cx="32" cy="18.5" r="1.45" fill="#34d399"/>
	<rect x="18" y="29" width="18" height="4.4" rx="2.2" fill="url(#accent)"/>
	<rect x="18" y="37" width="20" height="2.6" rx="1.3" fill="#2b233b" fill-opacity="0.22"/>
	<rect x="18" y="41" width="14" height="2.6" rx="1.3" fill="#2b233b" fill-opacity="0.16"/>
	<path d="M39 27L45 33L39 39" stroke="url(#accent)" stroke-width="3.2" stroke-linecap="round" stroke-linejoin="round"/>
	<circle cx="43.5" cy="45" r="4.25" fill="url(#shine)" fill-opacity="0.75"/>
</svg>
